# MagicaVoxel @ Ephtracy

# material
mtllib Alien5.mtl
usemtl palette

# normals
vn -1 0 0
vn 1 0 0
vn 0 0 1
vn 0 0 -1
vn 0 -1 0
vn 0 1 0

# texcoords
vt 0.0332031 0.5
vt 0.404297 0.5
vt 0.591797 0.5
vt 0.880859 0.5
vt 0.884766 0.5
vt 0.958984 0.5
vt 0.966797 0.5
vt 0.990234 0.5
vt 0.994141 0.5

# verts
v 12 12 -17
v 12 12 -18
v 12 13 -17
v 12 13 -18
v 12 16 -17
v 12 16 -18
v 12 17 -16
v 12 17 -18
v 12 18 -16
v 12 18 -18
v 12 23 -17
v 12 23 -18
v 12 24 -17
v 12 24 -18
v 13 11 -16
v 13 11 -19
v 13 12 -16
v 13 12 -17
v 13 12 -18
v 13 12 -19
v 13 13 -17
v 13 13 -18
v 13 16 -16
v 13 16 -17
v 13 16 -18
v 13 16 -19
v 13 17 -16
v 13 17 -17
v 13 17 -18
v 13 18 -16
v 13 18 -18
v 13 20 -16
v 13 20 -17
v 13 20 -18
v 13 20 -19
v 13 23 -17
v 13 23 -18
v 14 10 -17
v 14 10 -18
v 14 11 -17
v 14 11 -18
v 14 12 -19
v 14 12 -20
v 14 16 -19
v 14 16 -20
v 14 20 -16
v 14 20 -17
v 14 20 -18
v 14 20 -19
v 14 21 -16
v 14 21 -17
v 14 21 -18
v 14 21 -20
v 17 10 -17
v 17 10 -18
v 17 11 -16
v 17 11 -17
v 17 11 -18
v 17 11 -19
v 17 12 -16
v 17 12 -17
v 17 12 -18
v 17 12 -19
v 18 21 -17
v 18 21 -18
v 18 24 -17
v 18 24 -18
v 14 21 -17
v 14 21 -18
v 14 24 -17
v 14 24 -18
v 15 10 -17
v 15 10 -18
v 15 11 -16
v 15 11 -17
v 15 11 -18
v 15 11 -19
v 15 12 -16
v 15 12 -17
v 15 12 -18
v 15 12 -19
v 18 10 -17
v 18 10 -18
v 18 11 -17
v 18 11 -18
v 18 12 -19
v 18 12 -20
v 18 16 -19
v 18 16 -20
v 18 20 -16
v 18 20 -17
v 18 21 -16
v 18 21 -17
v 18 21 -19
v 18 21 -20
v 19 11 -16
v 19 11 -19
v 19 12 -16
v 19 12 -17
v 19 12 -18
v 19 12 -19
v 19 13 -17
v 19 13 -18
v 19 16 -16
v 19 16 -17
v 19 16 -18
v 19 16 -19
v 19 17 -17
v 19 17 -18
v 19 18 -17
v 19 18 -18
v 19 20 -16
v 19 20 -17
v 19 21 -18
v 19 21 -19
v 19 23 -17
v 19 23 -18
v 20 12 -17
v 20 12 -18
v 20 13 -17
v 20 13 -18
v 20 16 -17
v 20 16 -18
v 20 17 -17
v 20 17 -18
v 20 18 -17
v 20 18 -18
v 20 23 -17
v 20 23 -18
v 20 24 -17
v 20 24 -18
v 12 17 -16
v 12 18 -16
v 13 11 -16
v 13 12 -16
v 13 16 -16
v 13 17 -16
v 13 18 -16
v 13 20 -16
v 14 17 -16
v 14 19 -16
v 14 20 -16
v 14 21 -16
v 15 11 -16
v 15 12 -16
v 15 17 -16
v 15 19 -16
v 17 11 -16
v 17 12 -16
v 17 17 -16
v 17 19 -16
v 18 17 -16
v 18 19 -16
v 18 20 -16
v 18 21 -16
v 19 11 -16
v 19 12 -16
v 19 16 -16
v 19 20 -16
v 12 12 -17
v 12 13 -17
v 12 16 -17
v 12 23 -17
v 12 24 -17
v 13 12 -17
v 13 13 -17
v 13 16 -17
v 13 20 -17
v 13 23 -17
v 14 10 -17
v 14 11 -17
v 14 20 -17
v 14 21 -17
v 14 24 -17
v 15 10 -17
v 15 11 -17
v 17 10 -17
v 17 11 -17
v 18 10 -17
v 18 11 -17
v 18 20 -17
v 18 21 -17
v 18 24 -17
v 19 12 -17
v 19 13 -17
v 19 16 -17
v 19 17 -17
v 19 18 -17
v 19 20 -17
v 19 23 -17
v 20 12 -17
v 20 13 -17
v 20 16 -17
v 20 17 -17
v 20 18 -17
v 20 23 -17
v 20 24 -17
v 12 12 -18
v 12 13 -18
v 12 16 -18
v 12 17 -18
v 12 18 -18
v 12 23 -18
v 12 24 -18
v 13 12 -18
v 13 13 -18
v 13 16 -18
v 13 17 -18
v 13 18 -18
v 13 20 -18
v 13 23 -18
v 14 10 -18
v 14 11 -18
v 14 20 -18
v 14 21 -18
v 14 24 -18
v 15 10 -18
v 15 11 -18
v 17 10 -18
v 17 11 -18
v 18 10 -18
v 18 11 -18
v 18 21 -18
v 18 24 -18
v 19 12 -18
v 19 13 -18
v 19 16 -18
v 19 17 -18
v 19 18 -18
v 19 21 -18
v 19 23 -18
v 20 12 -18
v 20 13 -18
v 20 16 -18
v 20 17 -18
v 20 18 -18
v 20 23 -18
v 20 24 -18
v 13 11 -19
v 13 12 -19
v 13 16 -19
v 13 20 -19
v 14 12 -19
v 14 16 -19
v 14 20 -19
v 15 11 -19
v 15 12 -19
v 17 11 -19
v 17 12 -19
v 18 12 -19
v 18 16 -19
v 18 21 -19
v 19 11 -19
v 19 12 -19
v 19 16 -19
v 19 21 -19
v 14 12 -20
v 14 16 -20
v 14 21 -20
v 18 12 -20
v 18 16 -20
v 18 21 -20
v 14 10 -17
v 15 10 -17
v 17 10 -17
v 18 10 -17
v 14 10 -18
v 15 10 -18
v 17 10 -18
v 18 10 -18
v 13 11 -16
v 15 11 -16
v 17 11 -16
v 19 11 -16
v 14 11 -17
v 15 11 -17
v 17 11 -17
v 18 11 -17
v 14 11 -18
v 15 11 -18
v 17 11 -18
v 18 11 -18
v 13 11 -19
v 15 11 -19
v 17 11 -19
v 19 11 -19
v 15 12 -16
v 17 12 -16
v 12 12 -17
v 13 12 -17
v 15 12 -17
v 17 12 -17
v 19 12 -17
v 20 12 -17
v 12 12 -18
v 13 12 -18
v 15 12 -18
v 17 12 -18
v 19 12 -18
v 20 12 -18
v 14 12 -19
v 15 12 -19
v 17 12 -19
v 18 12 -19
v 14 12 -20
v 18 12 -20
v 12 17 -16
v 13 17 -16
v 13 17 -17
v 19 17 -17
v 20 17 -17
v 12 17 -18
v 13 17 -18
v 19 17 -18
v 20 17 -18
v 12 23 -17
v 13 23 -17
v 19 23 -17
v 20 23 -17
v 12 23 -18
v 13 23 -18
v 19 23 -18
v 20 23 -18
v 12 16 -17
v 13 16 -17
v 19 16 -17
v 20 16 -17
v 12 16 -18
v 13 16 -18
v 19 16 -18
v 20 16 -18
v 12 18 -16
v 13 18 -16
v 19 18 -17
v 20 18 -17
v 12 18 -18
v 13 18 -18
v 19 18 -18
v 20 18 -18
v 13 20 -16
v 14 20 -16
v 18 20 -16
v 19 20 -16
v 13 20 -17
v 14 20 -17
v 18 20 -17
v 19 20 -17
v 13 20 -18
v 14 20 -18
v 13 20 -19
v 14 20 -19
v 14 21 -16
v 18 21 -16
v 14 21 -17
v 18 21 -17
v 14 21 -18
v 18 21 -18
v 19 21 -18
v 18 21 -19
v 19 21 -19
v 14 21 -20
v 18 21 -20
v 12 24 -17
v 14 24 -17
v 18 24 -17
v 20 24 -17
v 12 24 -18
v 14 24 -18
v 18 24 -18
v 20 24 -18

# faces
f 3/2/1 2/2/1 1/2/1
f 4/2/1 2/2/1 3/2/1
f 5/7/1 4/7/1 3/7/1
f 6/7/1 4/7/1 5/7/1
f 9/2/1 8/2/1 7/2/1
f 10/2/1 8/2/1 9/2/1
f 13/2/1 12/2/1 11/2/1
f 14/2/1 12/2/1 13/2/1
f 17/9/1 16/9/1 15/9/1
f 18/9/1 16/9/1 17/9/1
f 19/9/1 16/9/1 18/9/1
f 20/9/1 16/9/1 19/9/1
f 21/7/1 18/7/1 17/7/1
f 22/7/1 20/7/1 19/7/1
f 23/7/1 21/7/1 17/7/1
f 24/7/1 21/7/1 23/7/1
f 25/7/1 20/7/1 22/7/1
f 26/7/1 20/7/1 25/7/1
f 27/2/1 24/2/1 23/2/1
f 28/5/1 25/5/1 24/5/1
f 28/2/1 24/2/1 27/2/1
f 29/2/1 26/2/1 25/2/1
f 29/5/1 25/5/1 28/5/1
f 31/2/1 26/2/1 29/2/1
f 32/2/1 31/2/1 30/2/1
f 33/2/1 31/2/1 32/2/1
f 34/2/1 26/2/1 31/2/1
f 34/2/1 31/2/1 33/2/1
f 35/2/1 26/2/1 34/2/1
f 36/2/1 34/2/1 33/2/1
f 37/2/1 34/2/1 36/2/1
f 40/2/1 39/2/1 38/2/1
f 41/2/1 39/2/1 40/2/1
f 44/7/1 43/7/1 42/7/1
f 45/7/1 43/7/1 44/7/1
f 49/2/1 45/2/1 44/2/1
f 50/2/1 47/2/1 46/2/1
f 51/2/1 47/2/1 50/2/1
f 52/2/1 49/2/1 48/2/1
f 53/2/1 45/2/1 49/2/1
f 53/2/1 49/2/1 52/2/1
f 57/2/1 55/2/1 54/2/1
f 58/2/1 55/2/1 57/2/1
f 60/9/1 57/9/1 56/9/1
f 60/9/1 59/9/1 58/9/1
f 60/9/1 58/9/1 57/9/1
f 61/9/1 59/9/1 60/9/1
f 62/9/1 59/9/1 61/9/1
f 63/9/1 59/9/1 62/9/1
f 66/2/1 65/2/1 64/2/1
f 67/2/1 65/2/1 66/2/1
f 68/2/2 69/2/2 70/2/2
f 70/2/2 69/2/2 71/2/2
f 72/2/2 73/2/2 75/2/2
f 75/2/2 73/2/2 76/2/2
f 74/9/2 75/9/2 78/9/2
f 76/9/2 77/9/2 78/9/2
f 75/9/2 76/9/2 78/9/2
f 78/9/2 77/9/2 79/9/2
f 79/9/2 77/9/2 80/9/2
f 80/9/2 77/9/2 81/9/2
f 82/2/2 83/2/2 84/2/2
f 84/2/2 83/2/2 85/2/2
f 86/7/2 87/7/2 88/7/2
f 88/7/2 87/7/2 89/7/2
f 90/2/2 91/2/2 92/2/2
f 92/2/2 91/2/2 93/2/2
f 88/2/2 89/2/2 94/2/2
f 94/2/2 89/2/2 95/2/2
f 96/9/2 97/9/2 98/9/2
f 98/9/2 97/9/2 99/9/2
f 99/9/2 97/9/2 100/9/2
f 100/9/2 97/9/2 101/9/2
f 98/7/2 99/7/2 102/7/2
f 100/7/2 101/7/2 103/7/2
f 98/7/2 102/7/2 104/7/2
f 104/7/2 102/7/2 105/7/2
f 103/7/2 101/7/2 106/7/2
f 106/7/2 101/7/2 107/7/2
f 104/2/2 105/2/2 108/2/2
f 105/8/2 106/8/2 108/8/2
f 106/2/2 107/2/2 109/2/2
f 108/8/2 106/8/2 109/8/2
f 104/2/2 108/2/2 110/2/2
f 109/2/2 107/2/2 111/2/2
f 104/2/2 110/2/2 112/2/2
f 110/2/2 111/2/2 112/2/2
f 112/2/2 111/2/2 113/2/2
f 111/2/2 107/2/2 114/2/2
f 113/2/2 111/2/2 114/2/2
f 114/2/2 107/2/2 115/2/2
f 113/2/2 114/2/2 116/2/2
f 116/2/2 114/2/2 117/2/2
f 118/2/2 119/2/2 120/2/2
f 120/2/2 119/2/2 121/2/2
f 120/7/2 121/7/2 122/7/2
f 122/7/2 121/7/2 123/7/2
f 124/2/2 125/2/2 126/2/2
f 126/2/2 125/2/2 127/2/2
f 128/2/2 129/2/2 130/2/2
f 130/2/2 129/2/2 131/2/2
f 137/2/3 133/2/3 132/2/3
f 138/2/3 133/2/3 137/2/3
f 140/2/3 137/2/3 136/2/3
f 140/2/3 139/2/3 138/2/3
f 140/2/3 138/2/3 137/2/3
f 141/2/3 139/2/3 140/2/3
f 142/2/3 139/2/3 141/2/3
f 144/9/3 135/9/3 134/9/3
f 145/7/3 136/7/3 135/7/3
f 145/9/3 135/9/3 144/9/3
f 146/2/3 140/2/3 136/2/3
f 146/6/3 141/6/3 140/6/3
f 147/2/3 143/2/3 142/2/3
f 147/6/3 141/6/3 146/6/3
f 147/2/3 142/2/3 141/2/3
f 149/7/3 136/7/3 145/7/3
f 150/2/3 146/2/3 136/2/3
f 150/2/3 147/2/3 146/2/3
f 151/2/3 143/2/3 147/2/3
f 151/2/3 147/2/3 150/2/3
f 152/2/3 150/2/3 136/2/3
f 152/6/3 151/6/3 150/6/3
f 153/2/3 143/2/3 151/2/3
f 153/6/3 151/6/3 152/6/3
f 154/2/3 143/2/3 153/2/3
f 155/2/3 143/2/3 154/2/3
f 156/9/3 149/9/3 148/9/3
f 157/7/3 136/7/3 149/7/3
f 157/9/3 149/9/3 156/9/3
f 158/2/3 152/2/3 136/2/3
f 158/7/3 136/7/3 157/7/3
f 158/2/3 153/2/3 152/2/3
f 158/2/3 154/2/3 153/2/3
f 159/2/3 154/2/3 158/2/3
f 165/2/3 161/2/3 160/2/3
f 166/7/3 162/7/3 161/7/3
f 166/2/3 161/2/3 165/2/3
f 167/7/3 162/7/3 166/7/3
f 169/2/3 164/2/3 163/2/3
f 172/2/3 169/2/3 168/2/3
f 173/2/3 169/2/3 172/2/3
f 174/2/3 164/2/3 169/2/3
f 174/2/3 169/2/3 173/2/3
f 175/2/3 171/2/3 170/2/3
f 176/2/3 171/2/3 175/2/3
f 179/2/3 178/2/3 177/2/3
f 180/2/3 178/2/3 179/2/3
f 189/2/3 183/2/3 182/2/3
f 189/2/3 182/2/3 181/2/3
f 190/2/3 183/2/3 189/2/3
f 191/2/3 185/2/3 184/2/3
f 192/7/3 186/7/3 185/7/3
f 192/2/3 185/2/3 191/2/3
f 193/7/3 186/7/3 192/7/3
f 194/2/3 188/2/3 187/2/3
f 195/2/3 188/2/3 194/2/3
f 196/2/3 183/2/3 190/2/3
f 197/2/3 183/2/3 196/2/3
f 198/2/4 199/2/4 205/2/4
f 199/7/4 200/7/4 206/7/4
f 205/2/4 199/2/4 206/2/4
f 206/7/4 200/7/4 207/7/4
f 201/2/4 202/2/4 208/2/4
f 208/2/4 202/2/4 209/2/4
f 203/2/4 204/2/4 211/2/4
f 210/2/4 211/2/4 214/2/4
f 214/2/4 211/2/4 215/2/4
f 211/2/4 204/2/4 216/2/4
f 215/2/4 211/2/4 216/2/4
f 212/2/4 213/2/4 217/2/4
f 217/2/4 213/2/4 218/2/4
f 219/2/4 220/2/4 221/2/4
f 221/2/4 220/2/4 222/2/4
f 223/2/4 224/2/4 230/2/4
f 230/2/4 224/2/4 231/2/4
f 225/2/4 226/2/4 232/2/4
f 226/7/4 227/7/4 233/7/4
f 232/2/4 226/2/4 233/2/4
f 233/7/4 227/7/4 234/7/4
f 228/2/4 229/2/4 235/2/4
f 235/2/4 229/2/4 236/2/4
f 231/2/4 224/2/4 237/2/4
f 237/2/4 224/2/4 238/2/4
f 239/9/4 240/9/4 243/9/4
f 240/7/4 241/7/4 243/7/4
f 241/2/4 242/2/4 244/2/4
f 243/7/4 241/7/4 244/7/4
f 244/2/4 242/2/4 245/2/4
f 239/9/4 243/9/4 246/9/4
f 246/9/4 243/9/4 247/9/4
f 248/9/4 249/9/4 250/9/4
f 248/9/4 250/9/4 253/9/4
f 250/7/4 251/7/4 254/7/4
f 253/9/4 250/9/4 254/9/4
f 251/2/4 252/2/4 255/2/4
f 254/7/4 251/7/4 255/7/4
f 255/2/4 252/2/4 256/2/4
f 257/7/4 258/7/4 260/7/4
f 258/2/4 259/2/4 261/2/4
f 260/7/4 258/7/4 261/7/4
f 261/2/4 259/2/4 262/2/4
f 267/2/5 264/2/5 263/2/5
f 268/2/5 264/2/5 267/2/5
f 269/2/5 266/2/5 265/2/5
f 270/2/5 266/2/5 269/2/5
f 275/9/5 272/9/5 271/9/5
f 276/9/5 272/9/5 275/9/5
f 277/9/5 274/9/5 273/9/5
f 278/9/5 274/9/5 277/9/5
f 279/9/5 275/9/5 271/9/5
f 282/9/5 274/9/5 278/9/5
f 283/9/5 280/9/5 279/9/5
f 283/9/5 279/9/5 271/9/5
f 284/9/5 280/9/5 283/9/5
f 285/9/5 282/9/5 281/9/5
f 286/9/5 274/9/5 282/9/5
f 286/9/5 282/9/5 285/9/5
f 291/7/5 288/7/5 287/7/5
f 292/7/5 288/7/5 291/7/5
f 295/2/5 290/2/5 289/2/5
f 296/2/5 290/2/5 295/2/5
f 297/3/5 292/3/5 291/3/5
f 298/3/5 292/3/5 297/3/5
f 299/2/5 294/2/5 293/2/5
f 300/2/5 294/2/5 299/2/5
f 302/7/5 298/7/5 297/7/5
f 303/7/5 298/7/5 302/7/5
f 305/7/5 302/7/5 301/7/5
f 305/7/5 304/7/5 303/7/5
f 305/7/5 303/7/5 302/7/5
f 306/7/5 304/7/5 305/7/5
f 309/2/5 308/2/5 307/2/5
f 312/2/5 309/2/5 307/2/5
f 313/2/5 309/2/5 312/2/5
f 314/2/5 311/2/5 310/2/5
f 315/2/5 311/2/5 314/2/5
f 320/2/5 317/2/5 316/2/5
f 321/2/5 317/2/5 320/2/5
f 322/2/5 319/2/5 318/2/5
f 323/2/5 319/2/5 322/2/5
f 324/7/6 325/7/6 328/7/6
f 328/7/6 325/7/6 329/7/6
f 326/7/6 327/7/6 330/7/6
f 330/7/6 327/7/6 331/7/6
f 332/2/6 333/2/6 336/2/6
f 336/2/6 333/2/6 337/2/6
f 334/2/6 335/2/6 338/2/6
f 338/2/6 335/2/6 339/2/6
f 340/2/6 341/2/6 344/2/6
f 344/2/6 341/2/6 345/2/6
f 342/2/6 343/2/6 346/2/6
f 346/2/6 343/2/6 347/2/6
f 348/2/6 349/2/6 350/2/6
f 350/2/6 349/2/6 351/2/6
f 352/2/6 353/2/6 354/2/6
f 354/2/6 353/2/6 355/2/6
f 354/2/6 355/2/6 356/2/6
f 356/2/6 355/2/6 357/2/6
f 356/2/6 357/2/6 359/2/6
f 357/2/6 358/2/6 359/2/6
f 359/2/6 358/2/6 360/2/6
f 356/2/6 359/2/6 361/2/6
f 361/2/6 359/2/6 362/2/6
f 363/2/6 364/2/6 367/2/6
f 367/2/6 364/2/6 368/2/6
f 365/2/6 366/2/6 369/2/6
f 369/2/6 366/2/6 370/2/6
