# MagicaVoxel @ Ephtracy

# material
mtllib Alien2.mtl
usemtl palette

# normals
vn -1 0 0
vn 1 0 0
vn 0 0 1
vn 0 0 -1
vn 0 -1 0
vn 0 1 0

# texcoords
vt 0.0332031 0.5
vt 0.591797 0.5
vt 0.880859 0.5
vt 0.884766 0.5
vt 0.958984 0.5
vt 0.966797 0.5
vt 0.990234 0.5
vt 0.994141 0.5

# verts
v -5 3 -4
v -5 3 -5
v -5 4 -4
v -5 4 -5
v -5 7 -4
v -5 7 -5
v -5 8 -3
v -5 8 -5
v -5 9 -3
v -5 9 -5
v -5 14 -4
v -5 14 -5
v -5 15 -4
v -5 15 -5
v -4 2 -3
v -4 2 -6
v -4 3 -3
v -4 3 -4
v -4 3 -5
v -4 3 -6
v -4 4 -4
v -4 4 -5
v -4 7 -3
v -4 7 -4
v -4 7 -5
v -4 7 -6
v -4 8 -3
v -4 8 -5
v -4 9 -3
v -4 9 -5
v -4 11 -3
v -4 11 -4
v -4 11 -5
v -4 11 -6
v -4 14 -4
v -4 14 -5
v -3 1 -4
v -3 1 -5
v -3 2 -4
v -3 2 -5
v -3 3 -6
v -3 3 -7
v -3 7 -6
v -3 7 -7
v -3 11 -3
v -3 11 -4
v -3 11 -5
v -3 11 -6
v -3 12 -3
v -3 12 -4
v -3 12 -5
v -3 12 -7
v 0 1 -4
v 0 1 -5
v 0 2 -3
v 0 2 -4
v 0 2 -5
v 0 2 -6
v 0 3 -3
v 0 3 -4
v 0 3 -5
v 0 3 -6
v 1 12 -4
v 1 12 -5
v 1 15 -4
v 1 15 -5
v -3 12 -4
v -3 12 -5
v -3 15 -4
v -3 15 -5
v -2 1 -4
v -2 1 -5
v -2 2 -3
v -2 2 -4
v -2 2 -5
v -2 2 -6
v -2 3 -3
v -2 3 -4
v -2 3 -5
v -2 3 -6
v 1 1 -4
v 1 1 -5
v 1 2 -4
v 1 2 -5
v 1 3 -6
v 1 3 -7
v 1 7 -6
v 1 7 -7
v 1 11 -3
v 1 11 -4
v 1 12 -3
v 1 12 -4
v 1 12 -6
v 1 12 -7
v 2 2 -3
v 2 2 -6
v 2 3 -3
v 2 3 -4
v 2 3 -5
v 2 3 -6
v 2 4 -4
v 2 4 -5
v 2 7 -3
v 2 7 -4
v 2 7 -5
v 2 7 -6
v 2 8 -4
v 2 8 -5
v 2 9 -4
v 2 9 -5
v 2 11 -3
v 2 11 -4
v 2 12 -5
v 2 12 -6
v 2 14 -4
v 2 14 -5
v 3 3 -4
v 3 3 -5
v 3 4 -4
v 3 4 -5
v 3 7 -4
v 3 7 -5
v 3 8 -4
v 3 8 -5
v 3 9 -4
v 3 9 -5
v 3 14 -4
v 3 14 -5
v 3 15 -4
v 3 15 -5
v -5 8 -3
v -5 9 -3
v -4 2 -3
v -4 3 -3
v -4 7 -3
v -4 8 -3
v -4 9 -3
v -4 11 -3
v -3 8 -3
v -3 10 -3
v -3 11 -3
v -3 12 -3
v -2 2 -3
v -2 3 -3
v -2 8 -3
v -2 10 -3
v 0 2 -3
v 0 3 -3
v 0 8 -3
v 0 10 -3
v 1 8 -3
v 1 10 -3
v 1 11 -3
v 1 12 -3
v 2 2 -3
v 2 3 -3
v 2 7 -3
v 2 11 -3
v -5 3 -4
v -5 4 -4
v -5 7 -4
v -5 14 -4
v -5 15 -4
v -4 3 -4
v -4 4 -4
v -4 7 -4
v -4 11 -4
v -4 14 -4
v -3 1 -4
v -3 2 -4
v -3 11 -4
v -3 12 -4
v -3 15 -4
v -2 1 -4
v -2 2 -4
v 0 1 -4
v 0 2 -4
v 1 1 -4
v 1 2 -4
v 1 11 -4
v 1 12 -4
v 1 15 -4
v 2 3 -4
v 2 4 -4
v 2 7 -4
v 2 8 -4
v 2 9 -4
v 2 11 -4
v 2 14 -4
v 3 3 -4
v 3 4 -4
v 3 7 -4
v 3 8 -4
v 3 9 -4
v 3 14 -4
v 3 15 -4
v -5 3 -5
v -5 4 -5
v -5 7 -5
v -5 8 -5
v -5 9 -5
v -5 14 -5
v -5 15 -5
v -4 3 -5
v -4 4 -5
v -4 7 -5
v -4 8 -5
v -4 9 -5
v -4 11 -5
v -4 14 -5
v -3 1 -5
v -3 2 -5
v -3 11 -5
v -3 12 -5
v -3 15 -5
v -2 1 -5
v -2 2 -5
v 0 1 -5
v 0 2 -5
v 1 1 -5
v 1 2 -5
v 1 12 -5
v 1 15 -5
v 2 3 -5
v 2 4 -5
v 2 7 -5
v 2 8 -5
v 2 9 -5
v 2 12 -5
v 2 14 -5
v 3 3 -5
v 3 4 -5
v 3 7 -5
v 3 8 -5
v 3 9 -5
v 3 14 -5
v 3 15 -5
v -4 2 -6
v -4 3 -6
v -4 7 -6
v -4 11 -6
v -3 3 -6
v -3 7 -6
v -3 11 -6
v -2 2 -6
v -2 3 -6
v 0 2 -6
v 0 3 -6
v 1 3 -6
v 1 7 -6
v 1 12 -6
v 2 2 -6
v 2 3 -6
v 2 7 -6
v 2 12 -6
v -3 3 -7
v -3 7 -7
v -3 12 -7
v 1 3 -7
v 1 7 -7
v 1 12 -7
v -3 1 -4
v -2 1 -4
v 0 1 -4
v 1 1 -4
v -3 1 -5
v -2 1 -5
v 0 1 -5
v 1 1 -5
v -4 2 -3
v -2 2 -3
v 0 2 -3
v 2 2 -3
v -3 2 -4
v -2 2 -4
v 0 2 -4
v 1 2 -4
v -3 2 -5
v -2 2 -5
v 0 2 -5
v 1 2 -5
v -4 2 -6
v -2 2 -6
v 0 2 -6
v 2 2 -6
v -2 3 -3
v 0 3 -3
v -5 3 -4
v -4 3 -4
v -2 3 -4
v 0 3 -4
v 2 3 -4
v 3 3 -4
v -5 3 -5
v -4 3 -5
v -2 3 -5
v 0 3 -5
v 2 3 -5
v 3 3 -5
v -3 3 -6
v -2 3 -6
v 0 3 -6
v 1 3 -6
v -3 3 -7
v 1 3 -7
v -5 8 -3
v -4 8 -3
v 2 8 -4
v 3 8 -4
v -5 8 -5
v -4 8 -5
v 2 8 -5
v 3 8 -5
v -5 14 -4
v -4 14 -4
v 2 14 -4
v 3 14 -4
v -5 14 -5
v -4 14 -5
v 2 14 -5
v 3 14 -5
v -5 7 -4
v -4 7 -4
v 2 7 -4
v 3 7 -4
v -5 7 -5
v -4 7 -5
v 2 7 -5
v 3 7 -5
v -5 9 -3
v -4 9 -3
v 2 9 -4
v 3 9 -4
v -5 9 -5
v -4 9 -5
v 2 9 -5
v 3 9 -5
v -4 11 -3
v -3 11 -3
v 1 11 -3
v 2 11 -3
v -4 11 -4
v -3 11 -4
v 1 11 -4
v 2 11 -4
v -4 11 -5
v -3 11 -5
v -4 11 -6
v -3 11 -6
v -3 12 -3
v 1 12 -3
v -3 12 -4
v 1 12 -4
v -3 12 -5
v 1 12 -5
v 2 12 -5
v 1 12 -6
v 2 12 -6
v -3 12 -7
v 1 12 -7
v -5 15 -4
v -3 15 -4
v 1 15 -4
v 3 15 -4
v -5 15 -5
v -3 15 -5
v 1 15 -5
v 3 15 -5

# faces
f 3/4/1 2/4/1 1/4/1
f 4/4/1 2/4/1 3/4/1
f 5/6/1 4/6/1 3/6/1
f 6/6/1 4/6/1 5/6/1
f 9/4/1 8/4/1 7/4/1
f 10/4/1 8/4/1 9/4/1
f 13/4/1 12/4/1 11/4/1
f 14/4/1 12/4/1 13/4/1
f 17/8/1 16/8/1 15/8/1
f 18/8/1 16/8/1 17/8/1
f 19/8/1 16/8/1 18/8/1
f 20/8/1 16/8/1 19/8/1
f 21/6/1 18/6/1 17/6/1
f 22/6/1 20/6/1 19/6/1
f 23/6/1 21/6/1 17/6/1
f 24/6/1 21/6/1 23/6/1
f 25/6/1 20/6/1 22/6/1
f 26/6/1 20/6/1 25/6/1
f 27/4/1 24/4/1 23/4/1
f 27/4/1 25/4/1 24/4/1
f 27/4/1 26/4/1 25/4/1
f 28/4/1 26/4/1 27/4/1
f 30/4/1 26/4/1 28/4/1
f 31/4/1 30/4/1 29/4/1
f 32/4/1 30/4/1 31/4/1
f 33/4/1 26/4/1 30/4/1
f 33/4/1 30/4/1 32/4/1
f 34/4/1 26/4/1 33/4/1
f 35/4/1 33/4/1 32/4/1
f 36/4/1 33/4/1 35/4/1
f 39/3/1 38/3/1 37/3/1
f 40/3/1 38/3/1 39/3/1
f 43/6/1 42/6/1 41/6/1
f 44/6/1 42/6/1 43/6/1
f 48/4/1 44/4/1 43/4/1
f 49/4/1 46/4/1 45/4/1
f 50/4/1 46/4/1 49/4/1
f 51/4/1 48/4/1 47/4/1
f 52/4/1 44/4/1 48/4/1
f 52/4/1 48/4/1 51/4/1
f 56/3/1 54/3/1 53/3/1
f 57/3/1 54/3/1 56/3/1
f 59/8/1 56/8/1 55/8/1
f 59/8/1 58/8/1 57/8/1
f 59/8/1 57/8/1 56/8/1
f 60/8/1 58/8/1 59/8/1
f 61/8/1 58/8/1 60/8/1
f 62/8/1 58/8/1 61/8/1
f 65/4/1 64/4/1 63/4/1
f 66/4/1 64/4/1 65/4/1
f 67/4/2 68/4/2 69/4/2
f 69/4/2 68/4/2 70/4/2
f 71/3/2 72/3/2 74/3/2
f 74/3/2 72/3/2 75/3/2
f 73/8/2 74/8/2 77/8/2
f 75/8/2 76/8/2 77/8/2
f 74/8/2 75/8/2 77/8/2
f 77/8/2 76/8/2 78/8/2
f 78/8/2 76/8/2 79/8/2
f 79/8/2 76/8/2 80/8/2
f 81/3/2 82/3/2 83/3/2
f 83/3/2 82/3/2 84/3/2
f 85/6/2 86/6/2 87/6/2
f 87/6/2 86/6/2 88/6/2
f 89/4/2 90/4/2 91/4/2
f 91/4/2 90/4/2 92/4/2
f 87/4/2 88/4/2 93/4/2
f 93/4/2 88/4/2 94/4/2
f 95/8/2 96/8/2 97/8/2
f 97/8/2 96/8/2 98/8/2
f 98/8/2 96/8/2 99/8/2
f 99/8/2 96/8/2 100/8/2
f 97/6/2 98/6/2 101/6/2
f 99/6/2 100/6/2 102/6/2
f 97/6/2 101/6/2 103/6/2
f 103/6/2 101/6/2 104/6/2
f 102/6/2 100/6/2 105/6/2
f 105/6/2 100/6/2 106/6/2
f 103/4/2 104/4/2 107/4/2
f 104/7/2 105/7/2 107/7/2
f 105/4/2 106/4/2 108/4/2
f 107/7/2 105/7/2 108/7/2
f 103/4/2 107/4/2 109/4/2
f 108/4/2 106/4/2 110/4/2
f 103/4/2 109/4/2 111/4/2
f 109/4/2 110/4/2 111/4/2
f 111/4/2 110/4/2 112/4/2
f 110/4/2 106/4/2 113/4/2
f 112/4/2 110/4/2 113/4/2
f 113/4/2 106/4/2 114/4/2
f 112/4/2 113/4/2 115/4/2
f 115/4/2 113/4/2 116/4/2
f 117/4/2 118/4/2 119/4/2
f 119/4/2 118/4/2 120/4/2
f 119/6/2 120/6/2 121/6/2
f 121/6/2 120/6/2 122/6/2
f 123/4/2 124/4/2 125/4/2
f 125/4/2 124/4/2 126/4/2
f 127/4/2 128/4/2 129/4/2
f 129/4/2 128/4/2 130/4/2
f 136/4/3 132/4/3 131/4/3
f 137/4/3 132/4/3 136/4/3
f 139/4/3 136/4/3 135/4/3
f 139/4/3 138/4/3 137/4/3
f 139/4/3 137/4/3 136/4/3
f 140/4/3 138/4/3 139/4/3
f 141/4/3 138/4/3 140/4/3
f 143/8/3 134/8/3 133/8/3
f 144/6/3 135/6/3 134/6/3
f 144/8/3 134/8/3 143/8/3
f 145/4/3 139/4/3 135/4/3
f 145/5/3 140/5/3 139/5/3
f 146/4/3 142/4/3 141/4/3
f 146/5/3 140/5/3 145/5/3
f 146/4/3 141/4/3 140/4/3
f 148/6/3 135/6/3 144/6/3
f 149/4/3 145/4/3 135/4/3
f 149/4/3 146/4/3 145/4/3
f 150/4/3 142/4/3 146/4/3
f 150/4/3 146/4/3 149/4/3
f 151/4/3 149/4/3 135/4/3
f 151/5/3 150/5/3 149/5/3
f 152/4/3 142/4/3 150/4/3
f 152/5/3 150/5/3 151/5/3
f 153/4/3 142/4/3 152/4/3
f 154/4/3 142/4/3 153/4/3
f 155/8/3 148/8/3 147/8/3
f 156/6/3 135/6/3 148/6/3
f 156/8/3 148/8/3 155/8/3
f 157/4/3 151/4/3 135/4/3
f 157/6/3 135/6/3 156/6/3
f 157/4/3 152/4/3 151/4/3
f 157/4/3 153/4/3 152/4/3
f 158/4/3 153/4/3 157/4/3
f 164/4/3 160/4/3 159/4/3
f 165/6/3 161/6/3 160/6/3
f 165/4/3 160/4/3 164/4/3
f 166/6/3 161/6/3 165/6/3
f 168/4/3 163/4/3 162/4/3
f 171/4/3 168/4/3 167/4/3
f 172/4/3 168/4/3 171/4/3
f 173/4/3 163/4/3 168/4/3
f 173/4/3 168/4/3 172/4/3
f 174/3/3 170/3/3 169/3/3
f 175/3/3 170/3/3 174/3/3
f 178/3/3 177/3/3 176/3/3
f 179/3/3 177/3/3 178/3/3
f 188/4/3 182/4/3 181/4/3
f 188/4/3 181/4/3 180/4/3
f 189/4/3 182/4/3 188/4/3
f 190/4/3 184/4/3 183/4/3
f 191/6/3 185/6/3 184/6/3
f 191/4/3 184/4/3 190/4/3
f 192/6/3 185/6/3 191/6/3
f 193/4/3 187/4/3 186/4/3
f 194/4/3 187/4/3 193/4/3
f 195/4/3 182/4/3 189/4/3
f 196/4/3 182/4/3 195/4/3
f 197/4/4 198/4/4 204/4/4
f 198/6/4 199/6/4 205/6/4
f 204/4/4 198/4/4 205/4/4
f 205/6/4 199/6/4 206/6/4
f 200/4/4 201/4/4 207/4/4
f 207/4/4 201/4/4 208/4/4
f 202/4/4 203/4/4 210/4/4
f 209/4/4 210/4/4 213/4/4
f 213/4/4 210/4/4 214/4/4
f 210/4/4 203/4/4 215/4/4
f 214/4/4 210/4/4 215/4/4
f 211/3/4 212/3/4 216/3/4
f 216/3/4 212/3/4 217/3/4
f 218/3/4 219/3/4 220/3/4
f 220/3/4 219/3/4 221/3/4
f 222/4/4 223/4/4 229/4/4
f 229/4/4 223/4/4 230/4/4
f 224/4/4 225/4/4 231/4/4
f 225/6/4 226/6/4 232/6/4
f 231/4/4 225/4/4 232/4/4
f 232/6/4 226/6/4 233/6/4
f 227/4/4 228/4/4 234/4/4
f 234/4/4 228/4/4 235/4/4
f 230/4/4 223/4/4 236/4/4
f 236/4/4 223/4/4 237/4/4
f 238/8/4 239/8/4 242/8/4
f 239/6/4 240/6/4 242/6/4
f 240/4/4 241/4/4 243/4/4
f 242/6/4 240/6/4 243/6/4
f 243/4/4 241/4/4 244/4/4
f 238/8/4 242/8/4 245/8/4
f 245/8/4 242/8/4 246/8/4
f 247/8/4 248/8/4 249/8/4
f 247/8/4 249/8/4 252/8/4
f 249/6/4 250/6/4 253/6/4
f 252/8/4 249/8/4 253/8/4
f 250/4/4 251/4/4 254/4/4
f 253/6/4 250/6/4 254/6/4
f 254/4/4 251/4/4 255/4/4
f 256/6/4 257/6/4 259/6/4
f 257/4/4 258/4/4 260/4/4
f 259/6/4 257/6/4 260/6/4
f 260/4/4 258/4/4 261/4/4
f 266/3/5 263/3/5 262/3/5
f 267/3/5 263/3/5 266/3/5
f 268/3/5 265/3/5 264/3/5
f 269/3/5 265/3/5 268/3/5
f 274/8/5 271/8/5 270/8/5
f 275/8/5 271/8/5 274/8/5
f 276/8/5 273/8/5 272/8/5
f 277/8/5 273/8/5 276/8/5
f 278/8/5 274/8/5 270/8/5
f 281/8/5 273/8/5 277/8/5
f 282/8/5 279/8/5 278/8/5
f 282/8/5 278/8/5 270/8/5
f 283/8/5 279/8/5 282/8/5
f 284/8/5 281/8/5 280/8/5
f 285/8/5 273/8/5 281/8/5
f 285/8/5 281/8/5 284/8/5
f 290/6/5 287/6/5 286/6/5
f 291/6/5 287/6/5 290/6/5
f 294/4/5 289/4/5 288/4/5
f 295/4/5 289/4/5 294/4/5
f 296/2/5 291/2/5 290/2/5
f 297/2/5 291/2/5 296/2/5
f 298/4/5 293/4/5 292/4/5
f 299/4/5 293/4/5 298/4/5
f 301/6/5 297/6/5 296/6/5
f 302/6/5 297/6/5 301/6/5
f 304/6/5 301/6/5 300/6/5
f 304/6/5 303/6/5 302/6/5
f 304/6/5 302/6/5 301/6/5
f 305/6/5 303/6/5 304/6/5
f 310/4/5 307/4/5 306/4/5
f 311/4/5 307/4/5 310/4/5
f 312/4/5 309/4/5 308/4/5
f 313/4/5 309/4/5 312/4/5
f 318/4/5 315/4/5 314/4/5
f 319/4/5 315/4/5 318/4/5
f 320/4/5 317/4/5 316/4/5
f 321/4/5 317/4/5 320/4/5
f 322/6/6 323/6/6 326/6/6
f 326/6/6 323/6/6 327/6/6
f 324/6/6 325/6/6 328/6/6
f 328/6/6 325/6/6 329/6/6
f 330/4/6 331/4/6 334/4/6
f 334/4/6 331/4/6 335/4/6
f 332/4/6 333/4/6 336/4/6
f 336/4/6 333/4/6 337/4/6
f 338/4/6 339/4/6 342/4/6
f 342/4/6 339/4/6 343/4/6
f 340/4/6 341/4/6 344/4/6
f 344/4/6 341/4/6 345/4/6
f 346/4/6 347/4/6 348/4/6
f 348/4/6 347/4/6 349/4/6
f 350/4/6 351/4/6 352/4/6
f 352/4/6 351/4/6 353/4/6
f 352/4/6 353/4/6 354/4/6
f 354/4/6 353/4/6 355/4/6
f 354/4/6 355/4/6 357/4/6
f 355/4/6 356/4/6 357/4/6
f 357/4/6 356/4/6 358/4/6
f 354/4/6 357/4/6 359/4/6
f 359/4/6 357/4/6 360/4/6
f 361/4/6 362/4/6 365/4/6
f 365/4/6 362/4/6 366/4/6
f 363/4/6 364/4/6 367/4/6
f 367/4/6 364/4/6 368/4/6
