# MagicaVoxel @ Ephtracy

# material
mtllib Alien6.mtl
usemtl palette

# normals
vn -1 0 0
vn 1 0 0
vn 0 0 1
vn 0 0 -1
vn 0 -1 0
vn 0 1 0

# texcoords
vt 0.0332031 0.5
vt 0.404297 0.5
vt 0.591797 0.5
vt 0.880859 0.5
vt 0.884766 0.5
vt 0.904297 0.5
vt 0.958984 0.5
vt 0.966797 0.5
vt 0.990234 0.5
vt 0.994141 0.5

# verts
v 12 12 -17
v 12 12 -18
v 12 13 -17
v 12 13 -18
v 12 16 -17
v 12 16 -18
v 12 17 -16
v 12 17 -18
v 12 18 -16
v 12 18 -18
v 12 23 -17
v 12 23 -18
v 12 24 -17
v 12 24 -18
v 13 11 -16
v 13 11 -19
v 13 12 -16
v 13 12 -17
v 13 12 -18
v 13 12 -19
v 13 13 -16
v 13 13 -17
v 13 13 -18
v 13 13 -19
v 13 14 -16
v 13 14 -17
v 13 14 -18
v 13 14 -19
v 13 16 -16
v 13 16 -17
v 13 16 -18
v 13 16 -19
v 13 17 -16
v 13 17 -17
v 13 17 -18
v 13 18 -16
v 13 18 -18
v 13 20 -16
v 13 20 -17
v 13 20 -18
v 13 20 -19
v 13 23 -17
v 13 23 -18
v 14 10 -17
v 14 10 -18
v 14 11 -17
v 14 11 -18
v 14 12 -19
v 14 12 -20
v 14 13 -19
v 14 13 -20
v 14 14 -19
v 14 16 -19
v 14 16 -20
v 14 20 -16
v 14 20 -17
v 14 20 -18
v 14 20 -19
v 14 21 -16
v 14 21 -17
v 14 21 -18
v 14 21 -20
v 17 10 -17
v 17 10 -18
v 17 11 -16
v 17 11 -17
v 17 11 -18
v 17 11 -19
v 17 12 -16
v 17 12 -17
v 17 12 -18
v 17 12 -19
v 17 17 -15
v 17 17 -16
v 17 19 -15
v 17 19 -16
v 18 21 -17
v 18 21 -18
v 18 24 -17
v 18 24 -18
v 14 21 -17
v 14 21 -18
v 14 24 -17
v 14 24 -18
v 15 10 -17
v 15 10 -18
v 15 11 -16
v 15 11 -17
v 15 11 -18
v 15 11 -19
v 15 12 -16
v 15 12 -17
v 15 12 -18
v 15 12 -19
v 18 10 -17
v 18 10 -18
v 18 11 -17
v 18 11 -18
v 18 12 -19
v 18 12 -20
v 18 13 -19
v 18 13 -20
v 18 14 -19
v 18 16 -19
v 18 16 -20
v 18 20 -16
v 18 20 -17
v 18 21 -16
v 18 21 -17
v 18 21 -19
v 18 21 -20
v 19 11 -16
v 19 11 -19
v 19 12 -16
v 19 12 -17
v 19 12 -18
v 19 12 -19
v 19 13 -16
v 19 13 -17
v 19 13 -18
v 19 14 -16
v 19 14 -17
v 19 14 -18
v 19 14 -19
v 19 16 -16
v 19 16 -17
v 19 16 -18
v 19 16 -19
v 19 17 -15
v 19 17 -16
v 19 17 -17
v 19 17 -18
v 19 18 -15
v 19 18 -16
v 19 18 -17
v 19 18 -18
v 19 19 -16
v 19 19 -18
v 19 20 -16
v 19 20 -17
v 19 21 -18
v 19 21 -19
v 19 23 -17
v 19 23 -18
v 20 12 -17
v 20 12 -18
v 20 13 -17
v 20 13 -18
v 20 16 -17
v 20 16 -18
v 20 17 -17
v 20 17 -18
v 20 18 -15
v 20 18 -17
v 20 18 -18
v 20 19 -15
v 20 19 -18
v 20 23 -17
v 20 23 -18
v 20 24 -17
v 20 24 -18
v 17 17 -15
v 17 19 -15
v 19 17 -15
v 19 18 -15
v 19 19 -15
v 20 18 -15
v 20 19 -15
v 12 17 -16
v 12 18 -16
v 13 11 -16
v 13 12 -16
v 13 13 -16
v 13 14 -16
v 13 16 -16
v 13 17 -16
v 13 18 -16
v 13 20 -16
v 14 12 -16
v 14 13 -16
v 14 14 -16
v 14 16 -16
v 14 17 -16
v 14 19 -16
v 14 20 -16
v 14 21 -16
v 15 11 -16
v 15 12 -16
v 15 13 -16
v 15 15 -16
v 15 16 -16
v 15 17 -16
v 15 19 -16
v 16 13 -16
v 16 14 -16
v 17 11 -16
v 17 12 -16
v 17 14 -16
v 17 15 -16
v 17 16 -16
v 17 17 -16
v 17 19 -16
v 18 12 -16
v 18 13 -16
v 18 14 -16
v 18 16 -16
v 18 20 -16
v 18 21 -16
v 19 11 -16
v 19 12 -16
v 19 13 -16
v 19 14 -16
v 19 16 -16
v 19 17 -16
v 19 19 -16
v 19 20 -16
v 12 12 -17
v 12 13 -17
v 12 16 -17
v 12 23 -17
v 12 24 -17
v 13 12 -17
v 13 13 -17
v 13 14 -17
v 13 16 -17
v 13 20 -17
v 13 23 -17
v 14 10 -17
v 14 11 -17
v 14 20 -17
v 14 21 -17
v 14 24 -17
v 15 10 -17
v 15 11 -17
v 17 10 -17
v 17 11 -17
v 18 10 -17
v 18 11 -17
v 18 20 -17
v 18 21 -17
v 18 24 -17
v 19 12 -17
v 19 13 -17
v 19 14 -17
v 19 16 -17
v 19 17 -17
v 19 18 -17
v 19 20 -17
v 19 23 -17
v 20 12 -17
v 20 13 -17
v 20 16 -17
v 20 17 -17
v 20 18 -17
v 20 23 -17
v 20 24 -17
v 12 12 -18
v 12 13 -18
v 12 16 -18
v 12 17 -18
v 12 18 -18
v 12 23 -18
v 12 24 -18
v 13 12 -18
v 13 13 -18
v 13 14 -18
v 13 16 -18
v 13 17 -18
v 13 18 -18
v 13 20 -18
v 13 23 -18
v 14 10 -18
v 14 11 -18
v 14 20 -18
v 14 21 -18
v 14 24 -18
v 15 10 -18
v 15 11 -18
v 17 10 -18
v 17 11 -18
v 18 10 -18
v 18 11 -18
v 18 21 -18
v 18 24 -18
v 19 12 -18
v 19 13 -18
v 19 14 -18
v 19 16 -18
v 19 17 -18
v 19 18 -18
v 19 19 -18
v 19 21 -18
v 19 23 -18
v 20 12 -18
v 20 13 -18
v 20 16 -18
v 20 17 -18
v 20 18 -18
v 20 19 -18
v 20 23 -18
v 20 24 -18
v 13 11 -19
v 13 12 -19
v 13 13 -19
v 13 14 -19
v 13 16 -19
v 13 20 -19
v 14 12 -19
v 14 13 -19
v 14 14 -19
v 14 16 -19
v 14 20 -19
v 15 11 -19
v 15 12 -19
v 17 11 -19
v 17 12 -19
v 18 12 -19
v 18 13 -19
v 18 14 -19
v 18 16 -19
v 18 21 -19
v 19 11 -19
v 19 12 -19
v 19 14 -19
v 19 16 -19
v 19 21 -19
v 14 12 -20
v 14 13 -20
v 14 16 -20
v 14 21 -20
v 15 13 -20
v 15 15 -20
v 16 12 -20
v 16 15 -20
v 17 13 -20
v 17 16 -20
v 18 12 -20
v 18 13 -20
v 18 16 -20
v 18 21 -20
v 14 10 -17
v 15 10 -17
v 17 10 -17
v 18 10 -17
v 14 10 -18
v 15 10 -18
v 17 10 -18
v 18 10 -18
v 13 11 -16
v 15 11 -16
v 17 11 -16
v 19 11 -16
v 14 11 -17
v 15 11 -17
v 17 11 -17
v 18 11 -17
v 14 11 -18
v 15 11 -18
v 17 11 -18
v 18 11 -18
v 13 11 -19
v 15 11 -19
v 17 11 -19
v 19 11 -19
v 15 12 -16
v 17 12 -16
v 12 12 -17
v 13 12 -17
v 15 12 -17
v 17 12 -17
v 19 12 -17
v 20 12 -17
v 12 12 -18
v 13 12 -18
v 15 12 -18
v 17 12 -18
v 19 12 -18
v 20 12 -18
v 14 12 -19
v 15 12 -19
v 16 12 -19
v 17 12 -19
v 18 12 -19
v 14 12 -20
v 16 12 -20
v 18 12 -20
v 17 17 -15
v 19 17 -15
v 12 17 -16
v 13 17 -16
v 17 17 -16
v 19 17 -16
v 13 17 -17
v 19 17 -17
v 20 17 -17
v 12 17 -18
v 13 17 -18
v 19 17 -18
v 20 17 -18
v 19 18 -15
v 20 18 -15
v 19 18 -16
v 19 18 -17
v 20 18 -17
v 12 23 -17
v 13 23 -17
v 19 23 -17
v 20 23 -17
v 12 23 -18
v 13 23 -18
v 19 23 -18
v 20 23 -18
v 12 16 -17
v 13 16 -17
v 19 16 -17
v 20 16 -17
v 12 16 -18
v 13 16 -18
v 19 16 -18
v 20 16 -18
v 12 18 -16
v 13 18 -16
v 12 18 -18
v 13 18 -18
v 17 19 -15
v 19 19 -15
v 20 19 -15
v 17 19 -16
v 19 19 -16
v 19 19 -18
v 20 19 -18
v 13 20 -16
v 14 20 -16
v 18 20 -16
v 19 20 -16
v 13 20 -17
v 14 20 -17
v 18 20 -17
v 19 20 -17
v 13 20 -18
v 14 20 -18
v 13 20 -19
v 14 20 -19
v 14 21 -16
v 18 21 -16
v 14 21 -17
v 18 21 -17
v 14 21 -18
v 18 21 -18
v 19 21 -18
v 18 21 -19
v 19 21 -19
v 14 21 -20
v 18 21 -20
v 12 24 -17
v 14 24 -17
v 18 24 -17
v 20 24 -17
v 12 24 -18
v 14 24 -18
v 18 24 -18
v 20 24 -18

# faces
f 3/2/1 2/2/1 1/2/1
f 4/2/1 2/2/1 3/2/1
f 5/8/1 4/8/1 3/8/1
f 6/8/1 4/8/1 5/8/1
f 9/2/1 8/2/1 7/2/1
f 10/2/1 8/2/1 9/2/1
f 13/2/1 12/2/1 11/2/1
f 14/2/1 12/2/1 13/2/1
f 17/10/1 16/10/1 15/10/1
f 18/10/1 16/10/1 17/10/1
f 19/10/1 16/10/1 18/10/1
f 20/10/1 16/10/1 19/10/1
f 21/8/1 18/8/1 17/8/1
f 22/8/1 18/8/1 21/8/1
f 23/8/1 20/8/1 19/8/1
f 24/8/1 20/8/1 23/8/1
f 25/3/1 22/3/1 21/3/1
f 26/3/1 22/3/1 25/3/1
f 27/3/1 24/3/1 23/3/1
f 28/3/1 24/3/1 27/3/1
f 29/8/1 26/8/1 25/8/1
f 30/8/1 26/8/1 29/8/1
f 31/8/1 28/8/1 27/8/1
f 32/8/1 28/8/1 31/8/1
f 33/2/1 30/2/1 29/2/1
f 34/5/1 31/5/1 30/5/1
f 34/2/1 30/2/1 33/2/1
f 35/2/1 32/2/1 31/2/1
f 35/5/1 31/5/1 34/5/1
f 37/2/1 32/2/1 35/2/1
f 38/2/1 37/2/1 36/2/1
f 39/2/1 37/2/1 38/2/1
f 40/2/1 32/2/1 37/2/1
f 40/2/1 37/2/1 39/2/1
f 41/2/1 32/2/1 40/2/1
f 42/2/1 40/2/1 39/2/1
f 43/2/1 40/2/1 42/2/1
f 46/2/1 45/2/1 44/2/1
f 47/2/1 45/2/1 46/2/1
f 50/8/1 49/8/1 48/8/1
f 51/8/1 49/8/1 50/8/1
f 52/3/1 51/3/1 50/3/1
f 53/3/1 51/3/1 52/3/1
f 54/3/1 51/3/1 53/3/1
f 58/2/1 54/2/1 53/2/1
f 59/2/1 56/2/1 55/2/1
f 60/2/1 56/2/1 59/2/1
f 61/2/1 58/2/1 57/2/1
f 62/2/1 54/2/1 58/2/1
f 62/2/1 58/2/1 61/2/1
f 66/2/1 64/2/1 63/2/1
f 67/2/1 64/2/1 66/2/1
f 69/10/1 66/10/1 65/10/1
f 69/10/1 68/10/1 67/10/1
f 69/10/1 67/10/1 66/10/1
f 70/10/1 68/10/1 69/10/1
f 71/10/1 68/10/1 70/10/1
f 72/10/1 68/10/1 71/10/1
f 75/6/1 74/6/1 73/6/1
f 76/6/1 74/6/1 75/6/1
f 79/2/1 78/2/1 77/2/1
f 80/2/1 78/2/1 79/2/1
f 81/2/2 82/2/2 83/2/2
f 83/2/2 82/2/2 84/2/2
f 85/2/2 86/2/2 88/2/2
f 88/2/2 86/2/2 89/2/2
f 87/10/2 88/10/2 91/10/2
f 89/10/2 90/10/2 91/10/2
f 88/10/2 89/10/2 91/10/2
f 91/10/2 90/10/2 92/10/2
f 92/10/2 90/10/2 93/10/2
f 93/10/2 90/10/2 94/10/2
f 95/2/2 96/2/2 97/2/2
f 97/2/2 96/2/2 98/2/2
f 99/3/2 100/3/2 101/3/2
f 101/3/2 100/3/2 102/3/2
f 101/8/2 102/8/2 103/8/2
f 103/8/2 102/8/2 104/8/2
f 104/8/2 102/8/2 105/8/2
f 106/2/2 107/2/2 108/2/2
f 108/2/2 107/2/2 109/2/2
f 104/2/2 105/2/2 110/2/2
f 110/2/2 105/2/2 111/2/2
f 112/10/2 113/10/2 114/10/2
f 114/10/2 113/10/2 115/10/2
f 115/10/2 113/10/2 116/10/2
f 116/10/2 113/10/2 117/10/2
f 114/8/2 115/8/2 118/8/2
f 118/8/2 115/8/2 119/8/2
f 116/3/2 117/3/2 120/3/2
f 118/3/2 119/3/2 121/3/2
f 121/3/2 119/3/2 122/3/2
f 120/3/2 117/3/2 123/3/2
f 123/3/2 117/3/2 124/3/2
f 121/8/2 122/8/2 125/8/2
f 125/8/2 122/8/2 126/8/2
f 123/8/2 124/8/2 127/8/2
f 127/8/2 124/8/2 128/8/2
f 125/2/2 126/2/2 130/2/2
f 126/9/2 127/9/2 131/9/2
f 130/2/2 126/2/2 131/2/2
f 127/2/2 128/2/2 132/2/2
f 131/9/2 127/9/2 132/9/2
f 129/6/2 130/6/2 133/6/2
f 130/2/2 131/2/2 134/2/2
f 133/6/2 130/6/2 134/6/2
f 134/2/2 131/2/2 135/2/2
f 132/2/2 128/2/2 136/2/2
f 136/2/2 128/2/2 138/2/2
f 137/2/2 138/2/2 139/2/2
f 139/2/2 138/2/2 140/2/2
f 138/2/2 128/2/2 141/2/2
f 140/2/2 138/2/2 141/2/2
f 141/2/2 128/2/2 142/2/2
f 140/2/2 141/2/2 143/2/2
f 143/2/2 141/2/2 144/2/2
f 145/2/2 146/2/2 147/2/2
f 147/2/2 146/2/2 148/2/2
f 147/8/2 148/8/2 149/8/2
f 149/8/2 148/8/2 150/8/2
f 151/2/2 152/2/2 154/2/2
f 154/2/2 152/2/2 155/2/2
f 153/3/2 154/3/2 156/3/2
f 154/3/2 155/3/2 156/3/2
f 156/3/2 155/3/2 157/3/2
f 158/2/2 159/2/2 160/2/2
f 160/2/2 159/2/2 161/2/2
f 164/6/3 163/6/3 162/6/3
f 165/6/3 163/6/3 164/6/3
f 166/6/3 163/6/3 165/6/3
f 167/3/3 166/3/3 165/3/3
f 168/3/3 166/3/3 167/3/3
f 176/2/3 170/2/3 169/2/3
f 177/2/3 170/2/3 176/2/3
f 179/10/3 172/10/3 171/10/3
f 179/8/3 173/8/3 172/8/3
f 180/3/3 174/3/3 173/3/3
f 180/8/3 173/8/3 179/8/3
f 181/8/3 175/8/3 174/8/3
f 181/3/3 174/3/3 180/3/3
f 182/2/3 178/2/3 177/2/3
f 182/8/3 175/8/3 181/8/3
f 182/2/3 177/2/3 176/2/3
f 182/2/3 176/2/3 175/2/3
f 183/2/3 178/2/3 182/2/3
f 184/2/3 178/2/3 183/2/3
f 185/2/3 178/2/3 184/2/3
f 187/10/3 179/10/3 171/10/3
f 188/3/3 180/3/3 179/3/3
f 188/10/3 179/10/3 187/10/3
f 188/3/3 181/3/3 180/3/3
f 188/3/3 182/3/3 181/3/3
f 189/3/3 182/3/3 188/3/3
f 190/3/3 182/3/3 189/3/3
f 191/2/3 183/2/3 182/2/3
f 191/3/3 182/3/3 190/3/3
f 192/7/3 184/7/3 183/7/3
f 192/2/3 183/2/3 191/2/3
f 193/2/3 185/2/3 184/2/3
f 193/7/3 184/7/3 192/7/3
f 193/2/3 186/2/3 185/2/3
f 194/8/3 189/8/3 188/8/3
f 194/3/3 190/3/3 189/3/3
f 195/3/3 190/3/3 194/3/3
f 197/8/3 194/8/3 188/8/3
f 197/8/3 195/8/3 194/8/3
f 198/3/3 190/3/3 195/3/3
f 198/8/3 195/8/3 197/8/3
f 199/8/3 191/8/3 190/8/3
f 199/3/3 190/3/3 198/3/3
f 200/2/3 192/2/3 191/2/3
f 200/8/3 191/8/3 199/8/3
f 200/2/3 193/2/3 192/2/3
f 201/2/3 193/2/3 200/2/3
f 202/2/3 186/2/3 193/2/3
f 202/2/3 193/2/3 201/2/3
f 203/3/3 199/3/3 198/3/3
f 203/3/3 198/3/3 197/3/3
f 203/3/3 200/3/3 199/3/3
f 203/10/3 197/10/3 196/10/3
f 204/3/3 200/3/3 203/3/3
f 205/3/3 200/3/3 204/3/3
f 206/2/3 201/2/3 200/2/3
f 206/3/3 200/3/3 205/3/3
f 207/2/3 186/2/3 202/2/3
f 208/2/3 186/2/3 207/2/3
f 209/10/3 203/10/3 196/10/3
f 210/8/3 204/8/3 203/8/3
f 210/10/3 203/10/3 209/10/3
f 211/3/3 205/3/3 204/3/3
f 211/8/3 204/8/3 210/8/3
f 212/8/3 206/8/3 205/8/3
f 212/3/3 205/3/3 211/3/3
f 213/2/3 201/2/3 206/2/3
f 213/8/3 206/8/3 212/8/3
f 214/2/3 201/2/3 213/2/3
f 215/2/3 207/2/3 202/2/3
f 216/2/3 207/2/3 215/2/3
f 222/2/3 218/2/3 217/2/3
f 223/8/3 219/8/3 218/8/3
f 223/2/3 218/2/3 222/2/3
f 224/8/3 219/8/3 223/8/3
f 225/8/3 219/8/3 224/8/3
f 227/2/3 221/2/3 220/2/3
f 230/2/3 227/2/3 226/2/3
f 231/2/3 227/2/3 230/2/3
f 232/2/3 221/2/3 227/2/3
f 232/2/3 227/2/3 231/2/3
f 233/2/3 229/2/3 228/2/3
f 234/2/3 229/2/3 233/2/3
f 237/2/3 236/2/3 235/2/3
f 238/2/3 236/2/3 237/2/3
f 248/2/3 241/2/3 240/2/3
f 248/2/3 240/2/3 239/2/3
f 249/2/3 241/2/3 248/2/3
f 250/2/3 243/2/3 242/2/3
f 251/8/3 245/8/3 244/8/3
f 251/2/3 243/2/3 250/2/3
f 251/8/3 244/8/3 243/8/3
f 252/8/3 245/8/3 251/8/3
f 253/2/3 247/2/3 246/2/3
f 254/2/3 247/2/3 253/2/3
f 255/2/3 241/2/3 249/2/3
f 256/2/3 241/2/3 255/2/3
f 257/2/4 258/2/4 264/2/4
f 258/8/4 259/8/4 265/8/4
f 264/2/4 258/2/4 265/2/4
f 265/8/4 259/8/4 266/8/4
f 266/8/4 259/8/4 267/8/4
f 260/2/4 261/2/4 268/2/4
f 268/2/4 261/2/4 269/2/4
f 262/2/4 263/2/4 271/2/4
f 270/2/4 271/2/4 274/2/4
f 274/2/4 271/2/4 275/2/4
f 271/2/4 263/2/4 276/2/4
f 275/2/4 271/2/4 276/2/4
f 272/2/4 273/2/4 277/2/4
f 277/2/4 273/2/4 278/2/4
f 279/2/4 280/2/4 281/2/4
f 281/2/4 280/2/4 282/2/4
f 283/2/4 284/2/4 292/2/4
f 292/2/4 284/2/4 293/2/4
f 285/2/4 286/2/4 294/2/4
f 286/8/4 287/8/4 295/8/4
f 294/2/4 286/2/4 295/2/4
f 287/8/4 288/8/4 295/8/4
f 295/8/4 288/8/4 296/8/4
f 289/2/4 290/2/4 297/2/4
f 290/3/4 291/3/4 298/3/4
f 297/2/4 290/2/4 298/2/4
f 298/3/4 291/3/4 299/3/4
f 293/2/4 284/2/4 300/2/4
f 300/2/4 284/2/4 301/2/4
f 302/10/4 303/10/4 308/10/4
f 303/8/4 304/8/4 308/8/4
f 304/3/4 305/3/4 309/3/4
f 308/8/4 304/8/4 309/8/4
f 305/8/4 306/8/4 310/8/4
f 309/3/4 305/3/4 310/3/4
f 306/2/4 307/2/4 311/2/4
f 310/8/4 306/8/4 311/8/4
f 311/2/4 307/2/4 312/2/4
f 302/10/4 308/10/4 313/10/4
f 313/10/4 308/10/4 314/10/4
f 315/10/4 316/10/4 317/10/4
f 315/10/4 317/10/4 322/10/4
f 317/3/4 318/3/4 323/3/4
f 322/10/4 317/10/4 323/10/4
f 318/3/4 319/3/4 323/3/4
f 319/8/4 320/8/4 324/8/4
f 323/3/4 319/3/4 324/3/4
f 320/2/4 321/2/4 325/2/4
f 324/8/4 320/8/4 325/8/4
f 325/2/4 321/2/4 326/2/4
f 327/8/4 328/8/4 331/8/4
f 328/3/4 329/3/4 331/3/4
f 331/3/4 329/3/4 332/3/4
f 327/8/4 331/8/4 333/8/4
f 331/8/4 332/8/4 333/8/4
f 332/3/4 329/3/4 334/3/4
f 333/8/4 332/8/4 334/8/4
f 333/3/4 334/3/4 335/3/4
f 329/2/4 330/2/4 336/2/4
f 335/3/4 334/3/4 336/3/4
f 334/3/4 329/3/4 336/3/4
f 333/3/4 335/3/4 337/3/4
f 335/8/4 336/8/4 338/8/4
f 337/3/4 335/3/4 338/3/4
f 336/2/4 330/2/4 339/2/4
f 338/8/4 336/8/4 339/8/4
f 339/2/4 330/2/4 340/2/4
f 345/2/5 342/2/5 341/2/5
f 346/2/5 342/2/5 345/2/5
f 347/2/5 344/2/5 343/2/5
f 348/2/5 344/2/5 347/2/5
f 353/10/5 350/10/5 349/10/5
f 354/10/5 350/10/5 353/10/5
f 355/10/5 352/10/5 351/10/5
f 356/10/5 352/10/5 355/10/5
f 357/10/5 353/10/5 349/10/5
f 360/10/5 352/10/5 356/10/5
f 361/10/5 358/10/5 357/10/5
f 361/10/5 357/10/5 349/10/5
f 362/10/5 358/10/5 361/10/5
f 363/10/5 360/10/5 359/10/5
f 364/10/5 352/10/5 360/10/5
f 364/10/5 360/10/5 363/10/5
f 369/8/5 366/8/5 365/8/5
f 370/8/5 366/8/5 369/8/5
f 373/2/5 368/2/5 367/2/5
f 374/2/5 368/2/5 373/2/5
f 375/3/5 370/3/5 369/3/5
f 376/3/5 370/3/5 375/3/5
f 377/2/5 372/2/5 371/2/5
f 378/2/5 372/2/5 377/2/5
f 380/8/5 376/8/5 375/8/5
f 381/8/5 376/8/5 380/8/5
f 382/8/5 376/8/5 381/8/5
f 384/8/5 380/8/5 379/8/5
f 384/8/5 381/8/5 380/8/5
f 385/3/5 383/3/5 382/3/5
f 385/8/5 381/8/5 384/8/5
f 385/3/5 382/3/5 381/3/5
f 386/3/5 383/3/5 385/3/5
f 391/6/5 388/6/5 387/6/5
f 392/6/5 388/6/5 391/6/5
f 393/2/5 390/2/5 389/2/5
f 396/2/5 393/2/5 389/2/5
f 397/2/5 393/2/5 396/2/5
f 398/2/5 395/2/5 394/2/5
f 399/2/5 395/2/5 398/2/5
f 402/3/5 401/3/5 400/3/5
f 403/3/5 401/3/5 402/3/5
f 404/3/5 401/3/5 403/3/5
f 409/2/5 406/2/5 405/2/5
f 410/2/5 406/2/5 409/2/5
f 411/2/5 408/2/5 407/2/5
f 412/2/5 408/2/5 411/2/5
f 413/8/6 414/8/6 417/8/6
f 417/8/6 414/8/6 418/8/6
f 415/8/6 416/8/6 419/8/6
f 419/8/6 416/8/6 420/8/6
f 421/2/6 422/2/6 423/2/6
f 423/2/6 422/2/6 424/2/6
f 425/6/6 426/6/6 428/6/6
f 426/3/6 427/3/6 429/3/6
f 428/6/6 426/6/6 429/6/6
f 429/3/6 427/3/6 430/3/6
f 430/3/6 427/3/6 431/3/6
f 432/2/6 433/2/6 436/2/6
f 436/2/6 433/2/6 437/2/6
f 434/2/6 435/2/6 438/2/6
f 438/2/6 435/2/6 439/2/6
f 440/2/6 441/2/6 442/2/6
f 442/2/6 441/2/6 443/2/6
f 444/2/6 445/2/6 446/2/6
f 446/2/6 445/2/6 447/2/6
f 446/2/6 447/2/6 448/2/6
f 448/2/6 447/2/6 449/2/6
f 448/2/6 449/2/6 451/2/6
f 449/2/6 450/2/6 451/2/6
f 451/2/6 450/2/6 452/2/6
f 448/2/6 451/2/6 453/2/6
f 453/2/6 451/2/6 454/2/6
f 455/2/6 456/2/6 459/2/6
f 459/2/6 456/2/6 460/2/6
f 457/2/6 458/2/6 461/2/6
f 461/2/6 458/2/6 462/2/6
