# MagicaVoxel @ Ephtracy

# material
mtllib Alien3.mtl
usemtl palette

# normals
vn -1 0 0
vn 1 0 0
vn 0 0 1
vn 0 0 -1
vn 0 -1 0
vn 0 1 0

# texcoords
vt 0.0332031 0.5
vt 0.591797 0.5
vt 0.880859 0.5
vt 0.884766 0.5
vt 0.904297 0.5
vt 0.958984 0.5
vt 0.966797 0.5
vt 0.990234 0.5
vt 0.994141 0.5

# verts
v -3 4 1
v -3 4 -0
v -3 5 1
v -3 5 -0
v -3 8 1
v -3 8 -0
v -3 9 2
v -3 9 -0
v -3 10 2
v -3 10 -0
v -3 15 1
v -3 15 -0
v -3 16 1
v -3 16 -0
v -2 3 2
v -2 3 -1
v -2 4 2
v -2 4 1
v -2 4 -0
v -2 4 -1
v -2 5 2
v -2 5 1
v -2 5 -0
v -2 5 -1
v -2 6 2
v -2 6 1
v -2 6 -0
v -2 6 -1
v -2 8 2
v -2 8 1
v -2 8 -0
v -2 8 -1
v -2 9 2
v -2 9 -0
v -2 10 2
v -2 10 -0
v -2 12 2
v -2 12 1
v -2 12 -0
v -2 12 -1
v -2 15 1
v -2 15 -0
v -1 2 1
v -1 2 -0
v -1 3 1
v -1 3 -0
v -1 4 -1
v -1 4 -2
v -1 5 -1
v -1 5 -2
v -1 6 -1
v -1 8 -1
v -1 8 -2
v -1 12 2
v -1 12 1
v -1 12 -0
v -1 12 -1
v -1 13 2
v -1 13 1
v -1 13 -0
v -1 13 -2
v 2 2 1
v 2 2 -0
v 2 3 2
v 2 3 1
v 2 3 -0
v 2 3 -1
v 2 4 2
v 2 4 1
v 2 4 -0
v 2 4 -1
v 2 9 3
v 2 9 2
v 2 11 3
v 2 11 2
v 3 13 1
v 3 13 -0
v 3 16 1
v 3 16 -0
v -1 13 1
v -1 13 -0
v -1 16 1
v -1 16 -0
v 0 2 1
v 0 2 -0
v 0 3 2
v 0 3 1
v 0 3 -0
v 0 3 -1
v 0 4 2
v 0 4 1
v 0 4 -0
v 0 4 -1
v 3 2 1
v 3 2 -0
v 3 3 1
v 3 3 -0
v 3 4 -1
v 3 4 -2
v 3 5 -1
v 3 5 -2
v 3 6 -1
v 3 8 -1
v 3 8 -2
v 3 12 2
v 3 12 1
v 3 13 2
v 3 13 1
v 3 13 -1
v 3 13 -2
v 4 3 2
v 4 3 -1
v 4 4 2
v 4 4 1
v 4 4 -0
v 4 4 -1
v 4 5 2
v 4 5 1
v 4 5 -0
v 4 6 2
v 4 6 1
v 4 6 -0
v 4 6 -1
v 4 8 2
v 4 8 1
v 4 8 -0
v 4 8 -1
v 4 9 3
v 4 9 2
v 4 9 1
v 4 9 -0
v 4 10 3
v 4 10 2
v 4 10 1
v 4 10 -0
v 4 11 2
v 4 11 -0
v 4 12 2
v 4 12 1
v 4 13 -0
v 4 13 -1
v 4 15 1
v 4 15 -0
v 5 4 1
v 5 4 -0
v 5 5 1
v 5 5 -0
v 5 8 1
v 5 8 -0
v 5 9 1
v 5 9 -0
v 5 10 3
v 5 10 1
v 5 10 -0
v 5 11 3
v 5 11 -0
v 5 15 1
v 5 15 -0
v 5 16 1
v 5 16 -0
v 2 9 3
v 2 11 3
v 4 9 3
v 4 10 3
v 4 11 3
v 5 10 3
v 5 11 3
v -3 9 2
v -3 10 2
v -2 3 2
v -2 4 2
v -2 5 2
v -2 6 2
v -2 8 2
v -2 9 2
v -2 10 2
v -2 12 2
v -1 4 2
v -1 5 2
v -1 6 2
v -1 8 2
v -1 9 2
v -1 11 2
v -1 12 2
v -1 13 2
v 0 3 2
v 0 4 2
v 0 5 2
v 0 7 2
v 0 8 2
v 0 9 2
v 0 11 2
v 1 5 2
v 1 6 2
v 2 3 2
v 2 4 2
v 2 6 2
v 2 7 2
v 2 8 2
v 2 9 2
v 2 11 2
v 3 4 2
v 3 5 2
v 3 6 2
v 3 8 2
v 3 12 2
v 3 13 2
v 4 3 2
v 4 4 2
v 4 5 2
v 4 6 2
v 4 8 2
v 4 9 2
v 4 11 2
v 4 12 2
v -3 4 1
v -3 5 1
v -3 8 1
v -3 15 1
v -3 16 1
v -2 4 1
v -2 5 1
v -2 6 1
v -2 8 1
v -2 12 1
v -2 15 1
v -1 2 1
v -1 3 1
v -1 12 1
v -1 13 1
v -1 16 1
v 0 2 1
v 0 3 1
v 2 2 1
v 2 3 1
v 3 2 1
v 3 3 1
v 3 12 1
v 3 13 1
v 3 16 1
v 4 4 1
v 4 5 1
v 4 6 1
v 4 8 1
v 4 9 1
v 4 10 1
v 4 12 1
v 4 15 1
v 5 4 1
v 5 5 1
v 5 8 1
v 5 9 1
v 5 10 1
v 5 15 1
v 5 16 1
v -3 4 -0
v -3 5 -0
v -3 8 -0
v -3 9 -0
v -3 10 -0
v -3 15 -0
v -3 16 -0
v -2 4 -0
v -2 5 -0
v -2 6 -0
v -2 8 -0
v -2 9 -0
v -2 10 -0
v -2 12 -0
v -2 15 -0
v -1 2 -0
v -1 3 -0
v -1 12 -0
v -1 13 -0
v -1 16 -0
v 0 2 -0
v 0 3 -0
v 2 2 -0
v 2 3 -0
v 3 2 -0
v 3 3 -0
v 3 13 -0
v 3 16 -0
v 4 4 -0
v 4 5 -0
v 4 6 -0
v 4 8 -0
v 4 9 -0
v 4 10 -0
v 4 11 -0
v 4 13 -0
v 4 15 -0
v 5 4 -0
v 5 5 -0
v 5 8 -0
v 5 9 -0
v 5 10 -0
v 5 11 -0
v 5 15 -0
v 5 16 -0
v -2 3 -1
v -2 4 -1
v -2 5 -1
v -2 6 -1
v -2 8 -1
v -2 12 -1
v -1 4 -1
v -1 5 -1
v -1 6 -1
v -1 8 -1
v -1 12 -1
v 0 3 -1
v 0 4 -1
v 2 3 -1
v 2 4 -1
v 3 4 -1
v 3 5 -1
v 3 6 -1
v 3 8 -1
v 3 13 -1
v 4 3 -1
v 4 4 -1
v 4 6 -1
v 4 8 -1
v 4 13 -1
v -1 4 -2
v -1 5 -2
v -1 8 -2
v -1 13 -2
v 0 5 -2
v 0 7 -2
v 1 4 -2
v 1 7 -2
v 2 5 -2
v 2 8 -2
v 3 4 -2
v 3 5 -2
v 3 8 -2
v 3 13 -2
v -1 2 1
v 0 2 1
v 2 2 1
v 3 2 1
v -1 2 -0
v 0 2 -0
v 2 2 -0
v 3 2 -0
v -2 3 2
v 0 3 2
v 2 3 2
v 4 3 2
v -1 3 1
v 0 3 1
v 2 3 1
v 3 3 1
v -1 3 -0
v 0 3 -0
v 2 3 -0
v 3 3 -0
v -2 3 -1
v 0 3 -1
v 2 3 -1
v 4 3 -1
v 0 4 2
v 2 4 2
v -3 4 1
v -2 4 1
v 0 4 1
v 2 4 1
v 4 4 1
v 5 4 1
v -3 4 -0
v -2 4 -0
v 0 4 -0
v 2 4 -0
v 4 4 -0
v 5 4 -0
v -1 4 -1
v 0 4 -1
v 1 4 -1
v 2 4 -1
v 3 4 -1
v -1 4 -2
v 1 4 -2
v 3 4 -2
v 2 9 3
v 4 9 3
v -3 9 2
v -2 9 2
v 2 9 2
v 4 9 2
v 4 9 1
v 5 9 1
v -3 9 -0
v -2 9 -0
v 4 9 -0
v 5 9 -0
v 4 10 3
v 5 10 3
v 4 10 2
v 4 10 1
v 5 10 1
v -3 15 1
v -2 15 1
v 4 15 1
v 5 15 1
v -3 15 -0
v -2 15 -0
v 4 15 -0
v 5 15 -0
v -3 8 1
v -2 8 1
v 4 8 1
v 5 8 1
v -3 8 -0
v -2 8 -0
v 4 8 -0
v 5 8 -0
v -3 10 2
v -2 10 2
v -3 10 -0
v -2 10 -0
v 2 11 3
v 4 11 3
v 5 11 3
v 2 11 2
v 4 11 2
v 4 11 -0
v 5 11 -0
v -2 12 2
v -1 12 2
v 3 12 2
v 4 12 2
v -2 12 1
v -1 12 1
v 3 12 1
v 4 12 1
v -2 12 -0
v -1 12 -0
v -2 12 -1
v -1 12 -1
v -1 13 2
v 3 13 2
v -1 13 1
v 3 13 1
v -1 13 -0
v 3 13 -0
v 4 13 -0
v 3 13 -1
v 4 13 -1
v -1 13 -2
v 3 13 -2
v -3 16 1
v -1 16 1
v 3 16 1
v 5 16 1
v -3 16 -0
v -1 16 -0
v 3 16 -0
v 5 16 -0

# faces
f 3/4/1 2/4/1 1/4/1
f 4/4/1 2/4/1 3/4/1
f 5/7/1 4/7/1 3/7/1
f 6/7/1 4/7/1 5/7/1
f 9/4/1 8/4/1 7/4/1
f 10/4/1 8/4/1 9/4/1
f 13/4/1 12/4/1 11/4/1
f 14/4/1 12/4/1 13/4/1
f 17/9/1 16/9/1 15/9/1
f 18/9/1 16/9/1 17/9/1
f 19/9/1 16/9/1 18/9/1
f 20/9/1 16/9/1 19/9/1
f 21/7/1 18/7/1 17/7/1
f 22/7/1 18/7/1 21/7/1
f 23/7/1 20/7/1 19/7/1
f 24/7/1 20/7/1 23/7/1
f 25/2/1 22/2/1 21/2/1
f 26/2/1 22/2/1 25/2/1
f 27/2/1 24/2/1 23/2/1
f 28/2/1 24/2/1 27/2/1
f 29/7/1 26/7/1 25/7/1
f 30/7/1 26/7/1 29/7/1
f 31/7/1 28/7/1 27/7/1
f 32/7/1 28/7/1 31/7/1
f 33/4/1 30/4/1 29/4/1
f 33/4/1 31/4/1 30/4/1
f 33/4/1 32/4/1 31/4/1
f 34/4/1 32/4/1 33/4/1
f 36/4/1 32/4/1 34/4/1
f 37/4/1 36/4/1 35/4/1
f 38/4/1 36/4/1 37/4/1
f 39/4/1 32/4/1 36/4/1
f 39/4/1 36/4/1 38/4/1
f 40/4/1 32/4/1 39/4/1
f 41/4/1 39/4/1 38/4/1
f 42/4/1 39/4/1 41/4/1
f 45/3/1 44/3/1 43/3/1
f 46/3/1 44/3/1 45/3/1
f 49/7/1 48/7/1 47/7/1
f 50/7/1 48/7/1 49/7/1
f 51/2/1 50/2/1 49/2/1
f 52/2/1 50/2/1 51/2/1
f 53/2/1 50/2/1 52/2/1
f 57/4/1 53/4/1 52/4/1
f 58/4/1 55/4/1 54/4/1
f 59/4/1 55/4/1 58/4/1
f 60/4/1 57/4/1 56/4/1
f 61/4/1 53/4/1 57/4/1
f 61/4/1 57/4/1 60/4/1
f 65/3/1 63/3/1 62/3/1
f 66/3/1 63/3/1 65/3/1
f 68/9/1 65/9/1 64/9/1
f 68/9/1 67/9/1 66/9/1
f 68/9/1 66/9/1 65/9/1
f 69/9/1 67/9/1 68/9/1
f 70/9/1 67/9/1 69/9/1
f 71/9/1 67/9/1 70/9/1
f 74/5/1 73/5/1 72/5/1
f 75/5/1 73/5/1 74/5/1
f 78/4/1 77/4/1 76/4/1
f 79/4/1 77/4/1 78/4/1
f 80/4/2 81/4/2 82/4/2
f 82/4/2 81/4/2 83/4/2
f 84/3/2 85/3/2 87/3/2
f 87/3/2 85/3/2 88/3/2
f 86/9/2 87/9/2 90/9/2
f 88/9/2 89/9/2 90/9/2
f 87/9/2 88/9/2 90/9/2
f 90/9/2 89/9/2 91/9/2
f 91/9/2 89/9/2 92/9/2
f 92/9/2 89/9/2 93/9/2
f 94/3/2 95/3/2 96/3/2
f 96/3/2 95/3/2 97/3/2
f 98/2/2 99/2/2 100/2/2
f 100/2/2 99/2/2 101/2/2
f 100/7/2 101/7/2 102/7/2
f 102/7/2 101/7/2 103/7/2
f 103/7/2 101/7/2 104/7/2
f 105/4/2 106/4/2 107/4/2
f 107/4/2 106/4/2 108/4/2
f 103/4/2 104/4/2 109/4/2
f 109/4/2 104/4/2 110/4/2
f 111/9/2 112/9/2 113/9/2
f 113/9/2 112/9/2 114/9/2
f 114/9/2 112/9/2 115/9/2
f 115/9/2 112/9/2 116/9/2
f 113/7/2 114/7/2 117/7/2
f 117/7/2 114/7/2 118/7/2
f 115/2/2 116/2/2 119/2/2
f 117/2/2 118/2/2 120/2/2
f 120/2/2 118/2/2 121/2/2
f 119/2/2 116/2/2 122/2/2
f 122/2/2 116/2/2 123/2/2
f 120/7/2 121/7/2 124/7/2
f 124/7/2 121/7/2 125/7/2
f 122/7/2 123/7/2 126/7/2
f 126/7/2 123/7/2 127/7/2
f 124/4/2 125/4/2 129/4/2
f 125/8/2 126/8/2 130/8/2
f 129/4/2 125/4/2 130/4/2
f 126/4/2 127/4/2 131/4/2
f 130/8/2 126/8/2 131/8/2
f 128/5/2 129/5/2 132/5/2
f 129/4/2 130/4/2 133/4/2
f 132/5/2 129/5/2 133/5/2
f 133/4/2 130/4/2 134/4/2
f 131/4/2 127/4/2 135/4/2
f 135/4/2 127/4/2 137/4/2
f 136/4/2 137/4/2 138/4/2
f 138/4/2 137/4/2 139/4/2
f 137/4/2 127/4/2 140/4/2
f 139/4/2 137/4/2 140/4/2
f 140/4/2 127/4/2 141/4/2
f 139/4/2 140/4/2 142/4/2
f 142/4/2 140/4/2 143/4/2
f 144/4/2 145/4/2 146/4/2
f 146/4/2 145/4/2 147/4/2
f 146/7/2 147/7/2 148/7/2
f 148/7/2 147/7/2 149/7/2
f 150/4/2 151/4/2 153/4/2
f 153/4/2 151/4/2 154/4/2
f 152/2/2 153/2/2 155/2/2
f 153/2/2 154/2/2 155/2/2
f 155/2/2 154/2/2 156/2/2
f 157/4/2 158/4/2 159/4/2
f 159/4/2 158/4/2 160/4/2
f 163/5/3 162/5/3 161/5/3
f 164/5/3 162/5/3 163/5/3
f 165/5/3 162/5/3 164/5/3
f 166/2/3 165/2/3 164/2/3
f 167/2/3 165/2/3 166/2/3
f 175/4/3 169/4/3 168/4/3
f 176/4/3 169/4/3 175/4/3
f 178/9/3 171/9/3 170/9/3
f 178/7/3 172/7/3 171/7/3
f 179/2/3 173/2/3 172/2/3
f 179/7/3 172/7/3 178/7/3
f 180/7/3 174/7/3 173/7/3
f 180/2/3 173/2/3 179/2/3
f 181/4/3 177/4/3 176/4/3
f 181/7/3 174/7/3 180/7/3
f 181/4/3 176/4/3 175/4/3
f 181/4/3 175/4/3 174/4/3
f 182/4/3 177/4/3 181/4/3
f 183/4/3 177/4/3 182/4/3
f 184/4/3 177/4/3 183/4/3
f 186/9/3 178/9/3 170/9/3
f 187/2/3 179/2/3 178/2/3
f 187/9/3 178/9/3 186/9/3
f 187/2/3 180/2/3 179/2/3
f 187/2/3 181/2/3 180/2/3
f 188/2/3 181/2/3 187/2/3
f 189/2/3 181/2/3 188/2/3
f 190/4/3 182/4/3 181/4/3
f 190/2/3 181/2/3 189/2/3
f 191/6/3 183/6/3 182/6/3
f 191/4/3 182/4/3 190/4/3
f 192/4/3 184/4/3 183/4/3
f 192/6/3 183/6/3 191/6/3
f 192/4/3 185/4/3 184/4/3
f 193/7/3 188/7/3 187/7/3
f 193/2/3 189/2/3 188/2/3
f 194/2/3 189/2/3 193/2/3
f 196/7/3 193/7/3 187/7/3
f 196/7/3 194/7/3 193/7/3
f 197/2/3 189/2/3 194/2/3
f 197/7/3 194/7/3 196/7/3
f 198/7/3 190/7/3 189/7/3
f 198/2/3 189/2/3 197/2/3
f 199/4/3 191/4/3 190/4/3
f 199/7/3 190/7/3 198/7/3
f 199/4/3 192/4/3 191/4/3
f 200/4/3 192/4/3 199/4/3
f 201/4/3 185/4/3 192/4/3
f 201/4/3 192/4/3 200/4/3
f 202/2/3 198/2/3 197/2/3
f 202/2/3 197/2/3 196/2/3
f 202/2/3 199/2/3 198/2/3
f 202/9/3 196/9/3 195/9/3
f 203/2/3 199/2/3 202/2/3
f 204/2/3 199/2/3 203/2/3
f 205/4/3 200/4/3 199/4/3
f 205/2/3 199/2/3 204/2/3
f 206/4/3 185/4/3 201/4/3
f 207/4/3 185/4/3 206/4/3
f 208/9/3 202/9/3 195/9/3
f 209/7/3 203/7/3 202/7/3
f 209/9/3 202/9/3 208/9/3
f 210/2/3 204/2/3 203/2/3
f 210/7/3 203/7/3 209/7/3
f 211/7/3 205/7/3 204/7/3
f 211/2/3 204/2/3 210/2/3
f 212/4/3 200/4/3 205/4/3
f 212/7/3 205/7/3 211/7/3
f 213/4/3 200/4/3 212/4/3
f 214/4/3 206/4/3 201/4/3
f 215/4/3 206/4/3 214/4/3
f 221/4/3 217/4/3 216/4/3
f 222/7/3 218/7/3 217/7/3
f 222/4/3 217/4/3 221/4/3
f 223/7/3 218/7/3 222/7/3
f 224/7/3 218/7/3 223/7/3
f 226/4/3 220/4/3 219/4/3
f 229/4/3 226/4/3 225/4/3
f 230/4/3 226/4/3 229/4/3
f 231/4/3 220/4/3 226/4/3
f 231/4/3 226/4/3 230/4/3
f 232/3/3 228/3/3 227/3/3
f 233/3/3 228/3/3 232/3/3
f 236/3/3 235/3/3 234/3/3
f 237/3/3 235/3/3 236/3/3
f 247/4/3 240/4/3 239/4/3
f 247/4/3 239/4/3 238/4/3
f 248/4/3 240/4/3 247/4/3
f 249/4/3 242/4/3 241/4/3
f 250/7/3 244/7/3 243/7/3
f 250/4/3 242/4/3 249/4/3
f 250/7/3 243/7/3 242/7/3
f 251/7/3 244/7/3 250/7/3
f 252/4/3 246/4/3 245/4/3
f 253/4/3 246/4/3 252/4/3
f 254/4/3 240/4/3 248/4/3
f 255/4/3 240/4/3 254/4/3
f 256/4/4 257/4/4 263/4/4
f 257/7/4 258/7/4 264/7/4
f 263/4/4 257/4/4 264/4/4
f 264/7/4 258/7/4 265/7/4
f 265/7/4 258/7/4 266/7/4
f 259/4/4 260/4/4 267/4/4
f 267/4/4 260/4/4 268/4/4
f 261/4/4 262/4/4 270/4/4
f 269/4/4 270/4/4 273/4/4
f 273/4/4 270/4/4 274/4/4
f 270/4/4 262/4/4 275/4/4
f 274/4/4 270/4/4 275/4/4
f 271/3/4 272/3/4 276/3/4
f 276/3/4 272/3/4 277/3/4
f 278/3/4 279/3/4 280/3/4
f 280/3/4 279/3/4 281/3/4
f 282/4/4 283/4/4 291/4/4
f 291/4/4 283/4/4 292/4/4
f 284/4/4 285/4/4 293/4/4
f 285/7/4 286/7/4 294/7/4
f 293/4/4 285/4/4 294/4/4
f 286/7/4 287/7/4 294/7/4
f 294/7/4 287/7/4 295/7/4
f 288/4/4 289/4/4 296/4/4
f 289/2/4 290/2/4 297/2/4
f 296/4/4 289/4/4 297/4/4
f 297/2/4 290/2/4 298/2/4
f 292/4/4 283/4/4 299/4/4
f 299/4/4 283/4/4 300/4/4
f 301/9/4 302/9/4 307/9/4
f 302/7/4 303/7/4 307/7/4
f 303/2/4 304/2/4 308/2/4
f 307/7/4 303/7/4 308/7/4
f 304/7/4 305/7/4 309/7/4
f 308/2/4 304/2/4 309/2/4
f 305/4/4 306/4/4 310/4/4
f 309/7/4 305/7/4 310/7/4
f 310/4/4 306/4/4 311/4/4
f 301/9/4 307/9/4 312/9/4
f 312/9/4 307/9/4 313/9/4
f 314/9/4 315/9/4 316/9/4
f 314/9/4 316/9/4 321/9/4
f 316/2/4 317/2/4 322/2/4
f 321/9/4 316/9/4 322/9/4
f 317/2/4 318/2/4 322/2/4
f 318/7/4 319/7/4 323/7/4
f 322/2/4 318/2/4 323/2/4
f 319/4/4 320/4/4 324/4/4
f 323/7/4 319/7/4 324/7/4
f 324/4/4 320/4/4 325/4/4
f 326/7/4 327/7/4 330/7/4
f 327/2/4 328/2/4 330/2/4
f 330/2/4 328/2/4 331/2/4
f 326/7/4 330/7/4 332/7/4
f 330/7/4 331/7/4 332/7/4
f 331/2/4 328/2/4 333/2/4
f 332/7/4 331/7/4 333/7/4
f 332/2/4 333/2/4 334/2/4
f 328/4/4 329/4/4 335/4/4
f 334/2/4 333/2/4 335/2/4
f 333/2/4 328/2/4 335/2/4
f 332/2/4 334/2/4 336/2/4
f 334/7/4 335/7/4 337/7/4
f 336/2/4 334/2/4 337/2/4
f 335/4/4 329/4/4 338/4/4
f 337/7/4 335/7/4 338/7/4
f 338/4/4 329/4/4 339/4/4
f 344/3/5 341/3/5 340/3/5
f 345/3/5 341/3/5 344/3/5
f 346/3/5 343/3/5 342/3/5
f 347/3/5 343/3/5 346/3/5
f 352/9/5 349/9/5 348/9/5
f 353/9/5 349/9/5 352/9/5
f 354/9/5 351/9/5 350/9/5
f 355/9/5 351/9/5 354/9/5
f 356/9/5 352/9/5 348/9/5
f 359/9/5 351/9/5 355/9/5
f 360/9/5 357/9/5 356/9/5
f 360/9/5 356/9/5 348/9/5
f 361/9/5 357/9/5 360/9/5
f 362/9/5 359/9/5 358/9/5
f 363/9/5 351/9/5 359/9/5
f 363/9/5 359/9/5 362/9/5
f 368/7/5 365/7/5 364/7/5
f 369/7/5 365/7/5 368/7/5
f 372/4/5 367/4/5 366/4/5
f 373/4/5 367/4/5 372/4/5
f 374/2/5 369/2/5 368/2/5
f 375/2/5 369/2/5 374/2/5
f 376/4/5 371/4/5 370/4/5
f 377/4/5 371/4/5 376/4/5
f 379/7/5 375/7/5 374/7/5
f 380/7/5 375/7/5 379/7/5
f 381/7/5 375/7/5 380/7/5
f 383/7/5 379/7/5 378/7/5
f 383/7/5 380/7/5 379/7/5
f 384/2/5 382/2/5 381/2/5
f 384/7/5 380/7/5 383/7/5
f 384/2/5 381/2/5 380/2/5
f 385/2/5 382/2/5 384/2/5
f 390/5/5 387/5/5 386/5/5
f 391/5/5 387/5/5 390/5/5
f 394/4/5 389/4/5 388/4/5
f 395/4/5 389/4/5 394/4/5
f 396/4/5 393/4/5 392/4/5
f 397/4/5 393/4/5 396/4/5
f 400/2/5 399/2/5 398/2/5
f 401/2/5 399/2/5 400/2/5
f 402/2/5 399/2/5 401/2/5
f 407/4/5 404/4/5 403/4/5
f 408/4/5 404/4/5 407/4/5
f 409/4/5 406/4/5 405/4/5
f 410/4/5 406/4/5 409/4/5
f 411/7/6 412/7/6 415/7/6
f 415/7/6 412/7/6 416/7/6
f 413/7/6 414/7/6 417/7/6
f 417/7/6 414/7/6 418/7/6
f 419/4/6 420/4/6 421/4/6
f 421/4/6 420/4/6 422/4/6
f 423/5/6 424/5/6 426/5/6
f 424/2/6 425/2/6 427/2/6
f 426/5/6 424/5/6 427/5/6
f 427/2/6 425/2/6 428/2/6
f 428/2/6 425/2/6 429/2/6
f 430/4/6 431/4/6 434/4/6
f 434/4/6 431/4/6 435/4/6
f 432/4/6 433/4/6 436/4/6
f 436/4/6 433/4/6 437/4/6
f 438/4/6 439/4/6 440/4/6
f 440/4/6 439/4/6 441/4/6
f 442/4/6 443/4/6 444/4/6
f 444/4/6 443/4/6 445/4/6
f 444/4/6 445/4/6 446/4/6
f 446/4/6 445/4/6 447/4/6
f 446/4/6 447/4/6 449/4/6
f 447/4/6 448/4/6 449/4/6
f 449/4/6 448/4/6 450/4/6
f 446/4/6 449/4/6 451/4/6
f 451/4/6 449/4/6 452/4/6
f 453/4/6 454/4/6 457/4/6
f 457/4/6 454/4/6 458/4/6
f 455/4/6 456/4/6 459/4/6
f 459/4/6 456/4/6 460/4/6
